<svg xmlns="http://www.w3.org/2000/svg" width="42.922" height="40" viewBox="0 0 42.922 40">
  <g id="analytics_black" transform="translate(-1.25 -2.375)">
    <path id="Path_1" data-name="Path 1" d="M33.976,12.713,26.013,24.9A4.338,4.338,0,0,1,27,27.663a4.384,4.384,0,0,1-8.767,0,4.8,4.8,0,0,1,.073-.813l-5.26-3.059A4.357,4.357,0,0,1,10,25.015a4.408,4.408,0,0,1-2.155-.566L2.25,29.69v5.224a3.909,3.909,0,0,0,3.9,3.9H39.273a3.909,3.909,0,0,0,3.9-3.9V15.5l-5.352-3.553a4.38,4.38,0,0,1-3.845.767Z" transform="translate(0 2.561)" fill="none" stroke="#f86422" stroke-width="2"/>
    <path id="Path_2" data-name="Path 2" d="M10.013,18.809A4.385,4.385,0,0,1,14.4,23.192c0,.192-.018.384-.037.566l5.489,3.068a4.345,4.345,0,0,1,2.776-.986,4.587,4.587,0,0,1,.95.1l7.982-12.365a4.337,4.337,0,0,1-.813-2.539,4.384,4.384,0,0,1,8.767,0,4.764,4.764,0,0,1-.119,1.032l3.772,2.521V7.275a3.909,3.909,0,0,0-3.9-3.9H6.15a3.909,3.909,0,0,0-3.9,3.9V28.215l3.653-3.5a4.383,4.383,0,0,1,4.11-5.909Z" transform="translate(0 0)" fill="none" stroke="#f86422" stroke-width="2"/>
  </g>
</svg>
