<svg xmlns="http://www.w3.org/2000/svg" width="75.218" height="66.113" viewBox="0 0 75.218 66.113">
  <path id="Icon_awesome-rocketchat" data-name="Icon awesome-rocketchat" d="M63.518,13.874c-10.046-6.638-23.4-8.149-34.49-6.147C16.618-4.242,2.712,1.263,0,2.846c0,0,9.543,8.109,7.993,15.212-11.3,11.518-5.927,24.341,0,30.4C9.543,55.557,0,63.667,0,63.667c2.686,1.588,16.554,7.076,29.028-4.832,11.067,1.989,24.42.491,34.49-6.158,15.574-9.943,15.625-28.809,0-38.8Zm-25.1,38.738A44.338,44.338,0,0,1,26.91,51.128l-2.582,2.493A23.471,23.471,0,0,1,19.55,57.2,18.692,18.692,0,0,1,12.8,59.121c.131-.232.245-.465.362-.684q3.874-7.182,2.089-12.888C11,42.2,8.458,37.931,8.458,33.257c0-10.708,13.416-19.383,29.958-19.383s29.958,8.675,29.958,19.383S54.957,52.612,38.416,52.612ZM24.044,37.867a4.482,4.482,0,0,1-4.544-4.4c-.091-5.927,8.858-6.057,8.948-.142v.067a4.44,4.44,0,0,1-4.4,4.482Zm9.633-4.4c-.1-5.927,8.846-6.07,8.949-.155v.08C42.677,39.274,33.78,39.338,33.677,33.463Zm18.723,4.4a4.483,4.483,0,0,1-4.546-4.4c-.09-5.927,8.859-6.057,8.949-.142v.067a4.426,4.426,0,0,1-4.4,4.482Z" transform="translate(0 -0.202)" fill="#fff"/>
</svg>
