<svg xmlns="http://www.w3.org/2000/svg" width="71.852" height="52.224" viewBox="0 0 71.852 52.224">
  <g id="clip" transform="matrix(0.995, 0.105, -0.105, 0.995, 4.748, 0)">
    <rect id="Rectangle_260" data-name="Rectangle 260" width="65.357" height="6.45" transform="translate(1.058 37.911)" fill="#3d4966"/>
    <path id="Path_83" data-name="Path 83" d="M0,37.382v-9.7H20.606a16.472,16.472,0,1,1,24.145,0H65.357v9.7ZM32.679,8.3a8.172,8.172,0,1,0,8.172,8.172A8.182,8.182,0,0,0,32.679,8.3Z" transform="translate(1.058 1.059)" fill="#5a6b96"/>
    <path id="Path_84" data-name="Path 84" d="M66.151,27.678H48.036a17.53,17.53,0,1,0-28.6,0H1.323A1.323,1.323,0,0,0,0,29V44.1a1.323,1.323,0,0,0,1.323,1.323H66.151A1.323,1.323,0,0,0,67.474,44.1V29A1.323,1.323,0,0,0,66.151,27.678ZM22.288,30.324a1.323,1.323,0,0,0,.935-2.259,14.884,14.884,0,1,1,21.029,0,1.323,1.323,0,0,0,.935,2.259H64.828v6.529H2.646V30.324ZM2.646,42.773V39.5H64.828v3.274Z" transform="translate(0)"/>
    <path id="Path_85" data-name="Path 85" d="M9.76,19.519A9.759,9.759,0,1,0,0,9.76,9.77,9.77,0,0,0,9.76,19.519Zm0-16.872A7.113,7.113,0,1,1,2.646,9.76,7.122,7.122,0,0,1,9.76,2.646Z" transform="translate(23.977 7.77)"/>
    <path id="Path_86" data-name="Path 86" d="M1.323,2.646h9.711a1.323,1.323,0,1,0,0-2.646H1.323a1.323,1.323,0,1,0,0,2.646Z" transform="translate(47.34 32.169)"/>
    <path id="Path_87" data-name="Path 87" d="M1.278,2.646A1.324,1.324,0,0,0,1.278,0,1.324,1.324,0,0,0,1.278,2.646Z" transform="translate(60.564 32.169)"/>
  </g>
</svg>
