<svg xmlns="http://www.w3.org/2000/svg" width="49.588" height="49.588" viewBox="0 0 49.588 49.588">
  <path id="Icon_awesome-facebook-square" data-name="Icon awesome-facebook-square" d="M44.275,2.25H5.313A5.313,5.313,0,0,0,0,7.563V46.525a5.313,5.313,0,0,0,5.313,5.313H20.505V34.979H13.532V27.044h6.973V21c0-6.879,4.1-10.679,10.368-10.679a42.246,42.246,0,0,1,6.145.536V17.6H33.557c-3.41,0-4.474,2.116-4.474,4.287v5.153H36.7l-1.218,7.935h-6.4V51.838H44.275a5.313,5.313,0,0,0,5.313-5.313V7.563A5.313,5.313,0,0,0,44.275,2.25Z" transform="translate(0 -2.25)" fill="#636363"/>
</svg>
