<svg xmlns="http://www.w3.org/2000/svg" width="49.849" height="49.838" viewBox="0 0 49.849 49.838">
  <path id="Icon_awesome-instagram" data-name="Icon awesome-instagram" d="M24.925,14.379A12.778,12.778,0,1,0,37.7,27.157,12.758,12.758,0,0,0,24.925,14.379Zm0,21.085a8.307,8.307,0,1,1,8.307-8.307,8.322,8.322,0,0,1-8.307,8.307ZM41.206,13.856a2.98,2.98,0,1,1-2.98-2.98A2.973,2.973,0,0,1,41.206,13.856Zm8.463,3.025c-.189-3.992-1.1-7.529-4.026-10.443S39.193,2.613,35.2,2.413c-4.115-.234-16.448-.234-20.563,0C10.657,2.6,7.12,3.514,4.2,6.427S.37,12.878.17,16.87c-.234,4.115-.234,16.448,0,20.563.189,3.992,1.1,7.529,4.026,10.443S10.646,51.7,14.638,51.9c4.115.234,16.448.234,20.563,0,3.992-.189,7.529-1.1,10.443-4.026s3.826-6.45,4.026-10.443c.234-4.115.234-16.437,0-20.551ZM44.353,41.848a8.41,8.41,0,0,1-4.737,4.737c-3.281,1.3-11.065,1-14.691,1s-11.421.289-14.691-1A8.41,8.41,0,0,1,5.5,41.848c-1.3-3.281-1-11.065-1-14.691s-.289-11.421,1-14.691a8.41,8.41,0,0,1,4.737-4.737c3.281-1.3,11.065-1,14.691-1s11.421-.289,14.691,1a8.41,8.41,0,0,1,4.737,4.737c1.3,3.281,1,11.065,1,14.691S45.654,38.578,44.353,41.848Z" transform="translate(0.005 -2.238)" fill="#fff"/>
</svg>
