<svg xmlns="http://www.w3.org/2000/svg" width="49.838" height="49.838" viewBox="0 0 49.838 49.838">
  <path id="Icon_awesome-line" data-name="Icon awesome-line" d="M30.27,21.407v7.91a.351.351,0,0,1-.356.356H28.646a.368.368,0,0,1-.289-.145L24.73,24.633v4.695a.351.351,0,0,1-.356.356H23.106a.351.351,0,0,1-.356-.356v-7.91a.351.351,0,0,1,.356-.356h1.257a.336.336,0,0,1,.289.156l3.627,4.895V21.418a.351.351,0,0,1,.356-.356H29.9a.352.352,0,0,1,.367.345Zm-9.122-.356H19.88a.351.351,0,0,0-.356.356v7.91a.351.351,0,0,0,.356.356h1.268a.351.351,0,0,0,.356-.356v-7.91a.358.358,0,0,0-.356-.356Zm-3.059,6.63h-3.46V21.407a.351.351,0,0,0-.356-.356H13a.351.351,0,0,0-.356.356v7.91a.327.327,0,0,0,.1.245.375.375,0,0,0,.245.1h5.084a.351.351,0,0,0,.356-.356V28.037a.356.356,0,0,0-.345-.356Zm18.856-6.63H31.861a.358.358,0,0,0-.356.356v7.91a.358.358,0,0,0,.356.356h5.084a.351.351,0,0,0,.356-.356V28.048a.351.351,0,0,0-.356-.356h-3.46V26.357h3.46A.351.351,0,0,0,37.3,26V24.722a.351.351,0,0,0-.356-.356h-3.46V23.031h3.46a.351.351,0,0,0,.356-.356V21.407a.374.374,0,0,0-.356-.356Zm12.893-9.712V43.077a9.061,9.061,0,0,1-9.089,9.011H9.011A9.068,9.068,0,0,1,0,43V11.261A9.068,9.068,0,0,1,9.089,2.25H40.827A9.061,9.061,0,0,1,49.838,11.339ZM42.985,24.978c0-8.121-8.143-14.729-18.144-14.729S6.7,16.857,6.7,24.978c0,7.275,6.452,13.372,15.174,14.529,2.125.456,1.88,1.235,1.4,4.094-.078.456-.367,1.791,1.569.979S35.287,38.427,39.1,34.044C41.728,31.152,42.985,28.226,42.985,24.978Z" transform="translate(0 -2.25)" fill="#636363"/>
</svg>
