<svg xmlns="http://www.w3.org/2000/svg" width="180.552" height="130.001" viewBox="0 0 180.552 130.001">
  <g id="Group_426" data-name="Group 426" transform="translate(-67 -15)">
    <g id="Group_75" data-name="Group 75" transform="translate(67 128.842)">
      <path id="Path_1" data-name="Path 1" d="M6.628,64.305l-.616,2.48v3.607l1.5,2.63v6.3h4.7s.571-.646.571-.391a.331.331,0,0,1-.316.376H0l1.5-4.118L0,72.676l1.5-2.87L0,65.387V64.23Z" transform="translate(0 -63.659)" fill="#fff"/>
      <path id="Path_2" data-name="Path 2" d="M21.526,66.285l1.5,8.7v3.321H17.017v-1.5a6.3,6.3,0,0,1-2.059,1.353,5.605,5.605,0,0,1-2.134.406,3.306,3.306,0,0,1-3.006-1.353,3.1,3.1,0,0,1-.466-1.127A9.017,9.017,0,0,0,8,74.25l1.5-2.54V66.285h4.509l1.5,5.591-1.5,2.059v1.4a4.419,4.419,0,0,0,.135,1.5.646.646,0,0,0,.616.286,2.014,2.014,0,0,0,.962-.271,7.861,7.861,0,0,0,1.292-.962l1.5-1.428-1.5-3.877,1.5-3.8V66.27Z" transform="translate(4.023 -62.633)" fill="#fff"/>
      <path id="Path_3" data-name="Path 3" d="M19,76.314q.2,0,.5.331a3.922,3.922,0,0,0,1.383.887,4.509,4.509,0,0,0,1.668.376.887.887,0,0,0,.541-.135.466.466,0,0,0,.18-.406,1.187,1.187,0,0,0-.255-.631q-.255-.361-1.112-1.4a35.511,35.511,0,0,1-2.66-3.517,3.742,3.742,0,0,1-.616-1.954,3.1,3.1,0,0,1,.421-1.5A3.817,3.817,0,0,1,20.233,67.1a4.96,4.96,0,0,1,2.885-.872,6.522,6.522,0,0,1,2.54.571q1.037.451,1.037.962a.421.421,0,0,1-.12.286.376.376,0,0,1-.286.135,1.593,1.593,0,0,1-.691-.406,3.532,3.532,0,0,0-2.254-.827,1.142,1.142,0,0,0-.646.15.526.526,0,0,0-.225.466,1.743,1.743,0,0,0,.406.932,24.47,24.47,0,0,0,1.608,1.894q1.2,1.307,1.5,1.713a7.139,7.139,0,0,1,.631.932,3.938,3.938,0,0,1,.511,1.969,3.171,3.171,0,0,1-1.5,2.705,4.87,4.87,0,0,1-2.916.857,6.192,6.192,0,0,1-3.427-.962,3.276,3.276,0,0,1-.6-.481.6.6,0,0,1-.165-.406A.472.472,0,0,1,19,76.314Z" transform="translate(9.313 -62.653)" fill="#fff"/>
      <path id="Path_4" data-name="Path 4" d="M29.761,68.851v7.935a1.773,1.773,0,0,0,.15.9.691.691,0,0,0,.6.225,3.877,3.877,0,0,0,2.254-.781,6.011,6.011,0,0,0,1.818-2.1c.135-.271.286-.406.421-.406a.346.346,0,0,1,.271.15.481.481,0,0,1,.12.316,2.1,2.1,0,0,1-.571,1.1A7.2,7.2,0,0,1,33.5,77.462,5.38,5.38,0,0,1,30.227,78.6a5.2,5.2,0,0,1-3.953-1.653A6.327,6.327,0,0,1,24.5,72.443a6.222,6.222,0,0,1,1.879-4.629,5.275,5.275,0,0,1,3.862-1.5,5.44,5.44,0,0,1,3.2.962,4.509,4.509,0,0,1,.962.887,1.413,1.413,0,0,1,.376.8.391.391,0,0,1-.105.271.346.346,0,0,1-.255.12q-.21,0-.511-.526a4.313,4.313,0,0,0-3.231-1.8.721.721,0,0,0-.736.361A4.6,4.6,0,0,0,29.761,68.851Z" transform="translate(11.622 -62.614)" fill="#fff"/>
      <path id="Path_5" data-name="Path 5" d="M38.011,67.492v2.179l1.5,2.63-1.5,4v2.239l.225.977H32l1.5-4L32,71.985l1.5-1.909v-2l-.225-.586ZM35.727,63.87q2.57,0,2.57,1.5a1.262,1.262,0,0,1-.676,1.127,3.712,3.712,0,0,1-1.909.406q-2.45,0-2.45-1.5T35.727,63.87Z" transform="translate(15.198 -63.84)" fill="#fff"/>
      <path id="Path_6" data-name="Path 6" d="M42.792,66.2a5.154,5.154,0,0,1,3.006.962A5.651,5.651,0,0,1,47.781,69.6a6.989,6.989,0,0,1,.6,2.87,6.823,6.823,0,0,1-1.368,3.953A5.485,5.485,0,0,1,44.926,78.1a5,5,0,0,1-2.119.466A5.065,5.065,0,0,1,39.5,77.351a5.846,5.846,0,0,1-1.743-2.435,6.943,6.943,0,0,1-.5-2.615,6.1,6.1,0,0,1,1.758-4.509A5.32,5.32,0,0,1,42.792,66.2Zm.09.691V77.832H43.3a4.509,4.509,0,0,0,2.585-.827,5.08,5.08,0,0,0,1.788-2.194,6.012,6.012,0,0,0,.466-2.39,5.561,5.561,0,0,0-1.728-4.253,4.388,4.388,0,0,0-3.006-1.307Z" transform="translate(17.673 -62.668)" fill="#fff"/>
      <path id="Path_7" data-name="Path 7" d="M58.546,66.285l1.5,8.7v3.321H54.037v-1.5a19.392,19.392,0,0,1-2.48,1.353,5.606,5.606,0,0,1-2.134.406,3.306,3.306,0,0,1-3.006-1.353,3.1,3.1,0,0,1-.466-1.127,10.927,10.927,0,0,0-.992-1.8l1.5-2.54V66.285h3.006l1.563,5.591v3.457a7.424,7.424,0,0,0-.075,1.5.661.661,0,0,0,.616.286,2.044,2.044,0,0,0,.977-.271c.331-.18,0-.962,0-.962l1.5-1.428-1.5-3.877,1.5-3.8V66.27Z" transform="translate(21.296 -62.633)" fill="#fff"/>
      <path id="Path_8" data-name="Path 8" d="M55.706,76.319q.2,0,.5.331a3.922,3.922,0,0,0,1.383.887,4.509,4.509,0,0,0,1.683.361.887.887,0,0,0,.541-.135.466.466,0,0,0,.18-.406,1.187,1.187,0,0,0-.255-.631q-.255-.361-1.112-1.4a35.518,35.518,0,0,1-2.72-3.517,3.742,3.742,0,0,1-.616-1.954,3.1,3.1,0,0,1,.421-1.5,3.817,3.817,0,0,1,1.187-1.262,4.959,4.959,0,0,1,2.886-.872,6.522,6.522,0,0,1,2.54.571q1.037.451,1.037.962a.421.421,0,0,1-.12.286.376.376,0,0,1-.286.135,1.593,1.593,0,0,1-.691-.406A3.532,3.532,0,0,0,60,66.942a1.142,1.142,0,0,0-.646.15.526.526,0,0,0-.225.466,1.743,1.743,0,0,0,.406.932A24.473,24.473,0,0,0,61.206,70.4q1.2,1.307,1.5,1.713a7.135,7.135,0,0,1,.631.932,3.938,3.938,0,0,1,.541,1.969,3.171,3.171,0,0,1-1.5,2.705,4.869,4.869,0,0,1-2.916.857,6.192,6.192,0,0,1-3.427-.962,3.276,3.276,0,0,1-.6-.481.6.6,0,0,1-.165-.406A.423.423,0,0,1,55.706,76.319Z" transform="translate(26.239 -62.658)" fill="#fff"/>
      <path id="Path_9" data-name="Path 9" d="M71.011,70.291v1.593l1.5,6.928v.5H65l1.5-8.055V64.28H75.9a3.005,3.005,0,0,0,.8.255c.15,0,.225.165.225.361s-.15.376-.436.887h-5.47v1.5h1.5l3.411,1.5h.751s.451-.255.541-.21a.316.316,0,0,1,.135.3q0,.421-.646.421l-.766.992Z" transform="translate(30.819 -63.634)" fill="#fff"/>
      <path id="Path_10" data-name="Path 10" d="M80.4,71.125V68.1a1.5,1.5,0,0,0-.165-.556q-.316-.6-1.5-.6a3.261,3.261,0,0,0-2.81,1.383q-.406.571-.676.571a.466.466,0,0,1-.361-.18.586.586,0,0,1-.15-.406q0-.676,1.338-1.413a6.793,6.793,0,0,1,3.276-.691,6.988,6.988,0,0,1,4.659,1.217,2.48,2.48,0,0,1,.766,1.187,10.294,10.294,0,0,1,.135,2.329v4.313a10.7,10.7,0,0,0,0,1.788,4.764,4.764,0,0,0,.421,1.292H80.4V77.2c-.15.451-.751.8-1.338,1.037a4.734,4.734,0,0,1-1.743.346,3.907,3.907,0,0,1-2.585-.947,4,4,0,0,1-1.5-3.216,3.622,3.622,0,0,1,1.187-2.825,4.9,4.9,0,0,1,3.442-1.262,5.922,5.922,0,0,1,1.5.165,3.5,3.5,0,0,1,1.037.631Zm0,.8a1.969,1.969,0,0,0-1.5-.676.706.706,0,0,0-.736.5,3.411,3.411,0,0,1-.827,1.5v2.6c.736.571.751.917.766,1.037a.586.586,0,0,0,.661.5,2.134,2.134,0,0,0,.992-.3c.361-.2.706-.466.571-.781Z" transform="translate(34.723 -62.679)" fill="#fff"/>
      <path id="Path_11" data-name="Path 11" d="M87.509,66.381v1.5a8.912,8.912,0,0,1,2.119-1.353,5.049,5.049,0,0,1,2.014-.451,3.517,3.517,0,0,1,2.224.706,2.585,2.585,0,0,1,.917,1.323,9.857,9.857,0,0,1,.24,2.555l1.5,5.2v2.525H90.514l1.5-3.006-1.5-2.209V68.44a1.157,1.157,0,0,0-.09-.391.646.646,0,0,0-.661-.346,2.149,2.149,0,0,0-1.022.3,5.92,5.92,0,0,0-1.232.962V69.4l1.5,3.006-1.5,2.329v3.246l.541.466H83L84.5,74.2,83,71.386l1.5-2.42V66.381Z" transform="translate(39.337 -62.729)" fill="#fff"/>
      <path id="Path_12" data-name="Path 12" d="M98.8,63.85l-.105,3.5v.331a14.013,14.013,0,0,0,1.5-.075h.21a.391.391,0,0,1,.436.436q0,.406-.451.406h-.346a2.049,2.049,0,0,0-1.1.571h-1.1l1.5,1.5-1.5,4.208v2.314a3.546,3.546,0,0,0,.105,1.007.361.361,0,0,0,.346.286A.992.992,0,0,0,99,77.917a3.006,3.006,0,0,0,.556-1.022q.18-.571.451-.571t.3.376a2.089,2.089,0,0,1-.3.932,4.028,4.028,0,0,1-.721.977,3.742,3.742,0,0,1-2.72,1.022,2.994,2.994,0,0,1-3.051-2.239,7.693,7.693,0,0,1-.165-1.879V74.505l1.5-2.284V68.329H92.791q-.481,0-.481-.406c0-.271.15-.391.451-.391H94.85V66.3A39.5,39.5,0,0,1,98.8,63.85Z" transform="translate(43.825 -63.85)" fill="#fff"/>
      <path id="Path_13" data-name="Path 13" d="M106.716,71.125V68.1a1.5,1.5,0,0,0-.165-.556q-.316-.6-1.5-.6a3.261,3.261,0,0,0-2.81,1.383q-.406.571-.676.571a.466.466,0,0,1-.361-.18.586.586,0,0,1-.15-.406q0-.676,1.338-1.413a6.793,6.793,0,0,1,3.276-.691,6.988,6.988,0,0,1,4.659,1.217,2.48,2.48,0,0,1,.766,1.187,10.3,10.3,0,0,1,.18,2.329v4.313a10.7,10.7,0,0,0,0,1.788,4.765,4.765,0,0,0,.421,1.292h-6.477V77.2c.391.451-.2.8-.781,1.037a4.735,4.735,0,0,1-1.743.346,3.907,3.907,0,0,1-2.585-.947,4,4,0,0,1-1.5-3.216,3.622,3.622,0,0,1,1.187-2.825,4.9,4.9,0,0,1,3.442-1.262,5.921,5.921,0,0,1,1.5.165C105.213,70.614,106.716,71.125,106.716,71.125Zm0,.781a9.574,9.574,0,0,0-2.4-.676.706.706,0,0,0-.736.5,3.156,3.156,0,0,0,.135,1.5v2.6a1.954,1.954,0,0,0-.18,1.037.586.586,0,0,0,.661.5,2.134,2.134,0,0,0,.992-.3,9.693,9.693,0,0,1,1.5-.782Z" transform="translate(46.304 -62.679)" fill="#fff"/>
      <path id="Path_14" data-name="Path 14" d="M108.441,76.329q.2,0,.5.331a3.922,3.922,0,0,0,1.383.887,4.509,4.509,0,0,0,1.683.361.887.887,0,0,0,.541-.135.466.466,0,0,0,.18-.406,1.187,1.187,0,0,0-.255-.631q-.256-.361-1.112-1.4a35.514,35.514,0,0,1-2.72-3.517,3.742,3.742,0,0,1-.616-1.954,3.1,3.1,0,0,1,.421-1.5,3.817,3.817,0,0,1,1.187-1.262,4.959,4.959,0,0,1,2.87-.9,6.522,6.522,0,0,1,2.54.571q1.037.451,1.037.962a.421.421,0,0,1-.12.286.376.376,0,0,1-.286.135,1.593,1.593,0,0,1-.691-.406,3.532,3.532,0,0,0-2.254-.827,1.142,1.142,0,0,0-.646.15.526.526,0,0,0-.225.466,1.743,1.743,0,0,0,.406.932A24.47,24.47,0,0,0,114,70.408q1.2,1.307,1.5,1.713a7.135,7.135,0,0,1,.631.932,3.937,3.937,0,0,1,.511,1.969,3.171,3.171,0,0,1-1.5,2.705,4.869,4.869,0,0,1-2.916.857,6.192,6.192,0,0,1-3.427-.962,3.275,3.275,0,0,1-.6-.481.6.6,0,0,1-.165-.406Q107.99,76.344,108.441,76.329Z" transform="translate(51.042 -62.668)" fill="#fff"/>
      <path id="Path_15" data-name="Path 15" d="M122.762,71.781q1.909-3.246,2.78-4.929a7.047,7.047,0,0,1,.391-.676.27.27,0,0,1,.225-.105.466.466,0,0,1,.346.165.526.526,0,0,1,.15.376.706.706,0,0,1-.165.391q-1.4,2.134-3.562,5.771l-1.713,2.916a15.687,15.687,0,0,1-1.5,2.164,3.471,3.471,0,0,1-1.022.751,2.57,2.57,0,0,1-1.142.286,1.5,1.5,0,0,1-.887-.225.691.691,0,0,1-.346-.586.541.541,0,0,1,.15-.391.511.511,0,0,1,.376-.165,1.849,1.849,0,0,1,.646.255,1.2,1.2,0,0,0,.541.165,1.368,1.368,0,0,0,.827-.3,4.253,4.253,0,0,0,.857-.977l-1.052-2.014q-3.712-6.417-4.959-8.281h6.192a31.111,31.111,0,0,0,1.353,2.84,27.421,27.421,0,0,0,1.518,2.57Z" transform="translate(53.898 -62.734)" fill="#fff"/>
    </g>
    <g id="Group_74" data-name="Group 74" transform="translate(87.799 15)">
      <ellipse id="Ellipse_1" data-name="Ellipse 1" cx="4.804" cy="5.934" rx="4.804" ry="5.934" transform="translate(36.595)" fill="#f86422"/>
      <path id="Path_16" data-name="Path 16" d="M54.85,8.44l94.021.811L131.223,35.857l-49.933.811,1.121,11.79,40.853-1.128L106.433,72.551l-20.819-.257,1.073,7.992H54.85Z" transform="translate(5.018 8.255)" fill="silver"/>
      <path id="Path_17" data-name="Path 17" d="M15.42,8.44H39.426v73l72.274.521,2.787,20.707H15.42Z" transform="translate(-15.42 8.255)" fill="#f86422"/>
      <rect id="Rectangle_2" data-name="Rectangle 2" width="50.91" height="1.978" transform="translate(16.767 11.987)" fill="#f86422"/>
    </g>
  </g>
</svg>
