<svg xmlns="http://www.w3.org/2000/svg" width="61.363" height="49.838" viewBox="0 0 61.363 49.838">
  <path id="Icon_awesome-twitter" data-name="Icon awesome-twitter" d="M55.056,15.8c.039.545.039,1.09.039,1.635,0,16.626-12.654,35.782-35.782,35.782A35.54,35.54,0,0,1,0,47.573a26.017,26.017,0,0,0,3.037.156A25.187,25.187,0,0,0,18.65,42.356,12.6,12.6,0,0,1,6.892,33.634a15.86,15.86,0,0,0,2.375.195,13.3,13.3,0,0,0,3.31-.428A12.578,12.578,0,0,1,2.492,21.058V20.9a12.666,12.666,0,0,0,5.685,1.6A12.6,12.6,0,0,1,4.283,5.678a35.748,35.748,0,0,0,25.932,13.16,14.2,14.2,0,0,1-.311-2.881,12.588,12.588,0,0,1,21.765-8.6A24.761,24.761,0,0,0,59.65,4.315a12.542,12.542,0,0,1-5.529,6.931A25.212,25.212,0,0,0,61.363,9.3a27.034,27.034,0,0,1-6.308,6.5Z" transform="translate(0 -3.381)" fill="#636363"/>
</svg>
