<svg enable-background="new 0 0 400 400" viewBox="0 0 400 400" xmlns="http://www.w3.org/2000/svg"><path d="m303.5 227c-1.7-5.8-5.5-10.5-10.8-13.4s-11.3-3.5-17.1-1.9c-9.1 2.7-15.5 10.7-16.1 20.1l-20.4 6.3c-.5.2-.8.7-.7 1.2l2.7 9.3c-1.7 3-1.9 6.7-1.8 10.2 0 1 .1 1.9.5 2.8.3.9 1 1.7 1.9 2.1.4.1.8.2 1.1.1 1-.3 1.1-1.6 1-2.6-.2-2.8-.4-5.6-.6-8.4h.1l20.4-6.3c4.3 5.9 11 9.2 18.1 9.2 2.1 0 4.2-.3 6.3-.9 5.8-1.7 10.5-5.5 13.4-10.8 3.1-5.1 3.7-11.2 2-17zm-7.6 4.8c-1.3 1.2-2.4 2.6-3.9 3.4-4.1 2.2-9.4-.6-13.7 1.2-1.9.7-3.3 2.2-5 3.2-3.6 2-8 1.6-12.1 1.2-2.5-.3-5-.5-7.3.5-.9.4-1.8.9-2.6 1.5-1.1.8-6.3 3-8.5 4.3l-2.1-7.2 20.1-6.2c.4-.1.7-.5.7-.9.3-8.9 6.2-16.5 14.7-19 5.2-1.5 10.8-.9 15.6 1.7s8.3 7 9.8 12.2c.1.3.1.6.2.9-2.2.5-4.2 1.6-5.9 3.2z" fill="#f9d688"/><ellipse cx="86.4" cy="329.7" fill="#bbb9b4" rx="21.9" ry="4.7"/><ellipse cx="231.7" cy="359.4" fill="#a19a95" rx="46.8" ry="12.9"/><path d="m36.5 197.5h136.3v-5.9h-136.3z" fill="#f9f7f2"/><path d="m89.5 170.1v-3.2-15.1-3.2h-17.3v3.2 15.1 3.2h-10v3.2 15.1 3.3h17.3v-3.3-15.1-3.2h2.7v6.4 7.8 7.4h17.3v-7.4-7.8-6.4z" fill="#efede8"/><path d="m132.3 160.3c0-3.5-1.8-6.7-4.6-8.5-1.8-1.2-2.8-3.2-2.8-5.3v-9.8h-5.7v9.8c0 2.1-1 4.1-2.8 5.3-2.7 1.8-4.6 4.9-4.6 8.5v11.4h20.3v-11.4z" fill="#f9f7f2"/><path d="m111.9 171.7h20.3v19.9h-20.3z" fill="#efede8"/><path d="m309.4 113.8h29.5v32.8h-29.5z" fill="#efede8"/><path d="m324.1 128.3-14.7-14.5h29.4z" fill="#e2e0db"/><path d="m217.4 57.1v95.4h136.3v-95.4zm129.6 89.5h-122.9v-83.6h122.9z" fill="#f9f7f2"/><path d="m233.2 110.8v17.5 18.3h24.7v-18.3-17.5z" fill="#efede8"/><path d="m245.5 135.7c-4.1 0-7.4-3.3-7.4-7.4s3.3-7.4 7.4-7.4 7.4 3.3 7.4 7.4-3.3 7.4-7.4 7.4z" fill="#f9f7f2"/><path d="m298.1 122.3v-3.1c0-6.8-4.6-12.6-10.8-14.4v-6.1h-8.3v6.1c-6.3 1.8-10.8 7.6-10.8 14.4v3.1 12.1 12.2h30v-12.2-12.1z" fill="#efede8"/><path d="m131.2 295.3v-74.5c0-32.6 23.6-59 52.6-59s39.8 17.5 38.4 59.5v74.2z" fill="#ff7979"/><path d="m209 295.3 10.2-8.1c1.1-1.2 2.1-2.5 3-4.1v-61.8c.1-4.5.2-8.6 0-12.5h-69.9l-12.1 51.3-9 19.4v15.7h21.1 56.7z" fill="#ff9393"/><path d="m382.3 296.9h-365.8c-1.4 0-2.5-1.1-2.5-2.5s1.1-2.5 2.5-2.5h365.8c1.4 0 2.5 1.1 2.5 2.5s-1.1 2.5-2.5 2.5z" fill="#eeebe6"/><path d="m280 310.6c-11.9 0-21.2 7.5-21.2 17.1s9.3 17.1 21.2 17.1 21.2-7.5 21.2-17.1c0-9.5-9.3-17.1-21.2-17.1zm9.5 19.7c0 2.3-3.6 5.4-9.5 5.4s-9.5-3.1-9.5-5.4 3.6-5.4 9.5-5.4 9.5 3.1 9.5 5.4z" fill="#a19a95"/><path d="m183.3 310.6c-11.9 0-21.2 7.5-21.2 17.1s9.3 17.1 21.2 17.1 21.2-7.5 21.2-17.1c.1-9.5-9.3-17.1-21.2-17.1zm9.5 19.7c0 2.3-3.6 5.4-9.5 5.4s-9.5-3.1-9.5-5.4 3.6-5.4 9.5-5.4 9.5 3.1 9.5 5.4z" fill="#a19a95"/><path d="m178.1 306.9 12 53.5c.1.4.3.7.7.8.5.2 12.9 5.5 40.7 5.5s40.3-5.3 40.8-5.5c.4-.1.6-.4.7-.8l12-53.5z" fill="#bbb9b4"/><path d="m231.7 270.8c-28.8 0-52.2 14.3-52.2 31.8 0 1.3.1 2.7.4 4 5.3-14.3 26.5-24.9 51.8-24.9s46.4 10.7 51.7 24.9c.3-1.3.4-2.6.4-4 0-17.5-23.4-31.8-52.1-31.8z" fill="#a19a95"/><path d="m231.7 281.6c-25.3 0-46.4 10.7-51.8 24.9 3.2 15.7 25.2 27.8 51.7 27.8 26.6 0 48.6-12.2 51.8-27.9-5.3-14.1-26.4-24.8-51.7-24.8z" fill="#fcecc4"/><path d="m231.7 336.2c-27.1 0-50.1-12.6-53.5-29.3-.3-1.4-.4-2.9-.4-4.3 0-9.1 5.7-17.7 16.2-24 10.1-6.2 23.6-9.6 37.8-9.6s27.7 3.4 37.8 9.6c10.4 6.4 16.2 14.9 16.2 24 0 1.4-.1 2.9-.4 4.3-3.6 16.7-26.6 29.3-53.7 29.3zm0-63.6c-13.6 0-26.3 3.2-35.9 9.1-9.3 5.7-14.4 13.1-14.4 20.9 0 1.2.1 2.4.4 3.6 3.1 15 24.6 26.4 50 26.4s46.9-11.3 50-26.4c.2-1.2.4-2.4.4-3.6 0-7.8-5.1-15.2-14.4-20.9-9.8-5.9-22.6-9.1-36.1-9.1z" fill="#bbb9b4"/><path d="m253.9 297.4c-5-3.6-12.9-2.5-21.1-4.8-8.2-2.4-16.6 2.3-22.6 4.5-6 2.9-9.6 3.4-10.1 7-.8 4.9 1.6 12.2 6.7 15.2 5 3.6 12.9 2.9 21 5.6s16.5-1.7 22.5-4c6-2.9 9.6-3.5 10.2-7.6.9-5.2-1.4-12.9-6.6-15.9zm-4.7 14.2c-.4 2.5-2.6 2.9-6.4 4.7-3.7 1.4-9 4.2-14 2.5-5.1-1.7-10-1.3-13.1-3.5-3.2-1.9-4.7-6.4-4.2-9.5.3-2.3 2.6-2.6 6.3-4.4 3.7-1.4 9-4.3 14.1-2.8s10.1.8 13.2 3c3.2 1.9 4.6 6.7 4.1 10z" fill="#fff"/><path d="m267.5 310.7c-.7-2-2.1-3.6-4-4.5s-4-1-6-.4c-1.8.6-3.3 1.8-4.2 3.5 0 .1-.1.1-.2.1-1.4-.4-2.9-.3-4.2.1-1.9.7-3.4 2-4.2 3.8 0 .1-.1.1-.2.1-1.1-.2-2.3-.1-3.3.4-1.1.5-2 1.3-2.6 2.4-.1.2-.1.5 0 .7s.4.4.6.4h2.5c2 0 4.7-.1 7.7-.3 0 0 0 0 0-.1l1.5-3c.2-.4.6-.5 1-.3s.5.6.3 1l-1.1 2.3h.2c.1-.1.1-.2.3-.2l9.2-5.4c.4-.2.8-.1 1 .3s.1.8-.3 1l-6.9 4.1c3.9-.4 8.2-1.1 12.5-2.1.3-.1.5-.3.6-.7.3-1.1.1-2.2-.2-3.2z" fill="#69af45"/><path d="m262 311.5c-.2-.4-.7-.5-1-.3l-9.2 5.4c-.1.1-.2.1-.3.2 1.1-.1 2.2-.2 3.3-.3l6.9-4.1c.4 0 .5-.5.3-.9z" fill="#497734"/><path d="m252.1 313.7c-.4-.2-.8 0-1 .3l-1.5 3v.1c.6 0 1.1-.1 1.7-.1l1.1-2.3c.2-.4 0-.8-.3-1z" fill="#497734"/><path d="m214.1 310.5c-.2-1.3-.8-2.5-1.7-3.5-.9-.9-2-1.5-3.2-1.8 0 0-.1 0-.1-.1-.1-1.7-.9-3.4-2.1-4.6-2.6-2.5-6.7-2.5-9.4 0-1.3 1.3-2.1 3-2.1 4.8s.6 3.6 1.9 4.9c.9.9 2 1.6 3.2 1.9h.1c.9.1 1.9.1 2.8.1 1.3 0 2.7-.1 4-.2l-5.6-5.9c-.3-.3-.3-.8 0-1 .3-.3.8-.3 1 0l6.4 6.7c1.3-.1 2.7-.3 4.1-.6.5 0 .7-.3.7-.7z" fill="#69af45"/><path d="m201.9 305.1c-.3.3-.3.7 0 1l5.6 5.9c.6 0 1.2-.1 1.9-.2l-6.4-6.7c-.3-.2-.8-.2-1.1 0z" fill="#497734"/><path d="m205.9 310c-.4 0-.7-.3-.7-.6l-.5-3.5c-.1-.4.2-.8.6-.8.4-.1.8.2.8.6l.5 3.5c.1.4-.2.8-.6.8 0 0 0 0-.1 0z" fill="#497734"/><path d="m238 297.2c.2-1.1.7-2.2 1.5-3s1.7-1.3 2.8-1.5c0 0 0 0 .1-.1.1-1.5.7-2.9 1.8-3.9 2.3-2.1 5.8-2.1 8.1 0 1.1 1.1 1.8 2.5 1.8 4.1s-.5 3.1-1.6 4.2c-.8.8-1.7 1.3-2.8 1.6h-.1c-.8 0-1.6.1-2.4.1-1.1 0-2.3 0-3.5-.1l4.9-5.1c.2-.3.2-.6 0-.9-.3-.2-.6-.2-.9 0l-5.6 5.8c-1.1-.1-2.3-.3-3.5-.5-.4-.1-.7-.4-.6-.7z" fill="#69af45"/><path d="m248.4 292.6c.3.2.3.6 0 .9l-4.9 5.1c-.5 0-1.1-.1-1.6-.1l5.6-5.8c.3-.4.7-.4.9-.1z" fill="#497734"/><path d="m245 296.8c.3 0 .6-.2.6-.5l.4-3c0-.3-.2-.7-.5-.7s-.7.2-.7.5l-.4 3c-.1.3.2.6.6.7-.1 0 0 0 0 0z" fill="#497734"/><circle cx="183.3" cy="112.2" fill="#fcecc4" r="37.8"/><circle cx="174.3" cy="113.7" fill="#554e49" r="4.4"/><circle cx="198.6" cy="111.5" fill="#554e49" r="4.4"/><path d="m184.1 138.8c-9.4 0-15.4-4.2-15.7-4.4-1.1-.8-1.4-2.4-.6-3.5s2.4-1.4 3.5-.6c.3.2 8.4 5.8 20.5 2.4 1.3-.4 2.7.4 3.1 1.7s-.4 2.7-1.7 3.1c-3.3.9-6.3 1.3-9.1 1.3z" fill="#f7c852"/><circle cx="145.4" cy="114.8" fill="#fcecc4" r="7"/><path d="m189.2 125.1c-.9 0-1.9-.5-2.3-1.5l-2.4-5.2c-.6-1.3 0-2.7 1.2-3.3 1.3-.6 2.7 0 3.3 1.2l2.4 5.2c.6 1.3 0 2.7-1.2 3.3-.3.2-.7.3-1 .3z" fill="#f7c852"/><circle cx="150.1" cy="67.1" fill="#554e49" r="21.5"/><path d="m183.3 67.1c-22.1 0-40 17.9-40 40v1.3s3.6 1.2 9.5-.8c6.9-2.3 20.2-9 28.4-23 0 0 30.5 20.7 39.3 20.8 0-22.1-15.2-38.3-37.2-38.3z" fill="#554e49"/><path d="m171.6 68.8c0-.6.1-1.2.1-1.7 0-.7 0-1.4-.1-2-12.3 2.8-22.5 11.4-27.5 22.7 1.2.4 2.5.6 3.8.8 4.9-9.4 13.4-16.6 23.7-19.8z" fill="#49403c"/><path d="m94.3 266.4v-28c0-.7-.6-1.2-1.2-1.2h-13.4c-.7 0-1.2.6-1.2 1.2v28c-6.2 0-11.2 5-11.2 11.2v9.8 22.5 19.1c0 .7.6 1.2 1.2 1.2h35.8c.7 0 1.2-.6 1.2-1.2v-19.1-22.5-9.8c0-6.2-5-11.2-11.2-11.2z" fill="#e2e0db"/><path d="m228.8 302.6c-.9 0-1.7-.5-2.2-1.3l-35.9-63.9c-.7-1.2-.2-2.7 1-3.4s2.7-.2 3.4 1l35.9 63.9c.7 1.2.2 2.7-1 3.4-.3.2-.8.3-1.2.3z" fill="#554e49"/><path d="m236.6 293.7c3.6 6.3 3.5 15.2-1.3 17.9s-12.4-1.9-16-8.2-1.7-12 3.1-14.7 10.6-1.3 14.2 5z" fill="#554e49"/><path d="m160 208.8s4.4-33.4-7.7-35.3c0 0 1.4-1.2 2.3-1.9 1.1-.8 2-1.3 2-1.3s15.6 1.4 9.6 38.5z" fill="#ff9393"/><path d="m205.2 166.9s7.3 1.8 12 4.5 37.5 21.7 37.5 21.7c8.5 4 12.8 13.6 10.3 22.6l-4.9 17.6h-22l6.1-19.9-22.8-4.6" fill="#ff7979"/><path d="m160.6 142.4s6.9 15.3 0 25.4l6.7 3.1c12.8 5.9 27.8 4.5 39.3-3.7s-15.3-6.4-10.6-19.4z" fill="#fcecc4"/><path d="m195.9 147.8c-4 1.4-8.2 2.2-12.7 2.2-5.8 0-11.4-1.3-16.3-3.7 6.9 9.1 17.9 15.1 30.2 15.1h1.3c-2.7-3.3-4.6-7.8-2.5-13.6z" fill="#f4d8a9"/><path d="m222.3 209.5s1.2-18.7-5.2-38.1c0 0-1.8-1-3.5-1.7-1.5-.6-3.7-1.4-3.7-1.4s5.6 22.7 4.9 40.5" fill="#ff9393"/><path d="m266 247.6-5.5-13.9s-1.3-6.7-9.1-7.7c-7.8-.9-11.8 6.7-14 7.7s-3.1 1.7-3.2 2.7.7 1.9 1.9 2.1c2.2.3 6.8-1.9 7.4-3.2h.1l1.5 6.8 3.5 9.4c.4.9 1.2 1.4 2.1 1.4.3 0 .6-.1.8-.2.9-.4 1.4-1.2 1.4-2.2l.2.5c.4.9 1.2 1.4 2.1 1.4.3 0 .6-.1.8-.2 1-.4 1.6-1.4 1.4-2.5l.3.6c.4.9 1.2 1.4 2.1 1.4.3 0 .6-.1.8-.2 1-.4 1.5-1.4 1.4-2.3.4.7 1.1 1.1 1.9 1.1.3 0 .6-.1.8-.2 1.2 0 1.8-1.4 1.3-2.5z" fill="#fcecc4"/><g fill="#f7c852"><path d="m252.5 250.9c-.4 0-.8-.3-.9-.7l-3-8.5c-.2-.5.1-1.1.6-1.3s1.1.1 1.3.6l3 8.5c.2.5-.1 1.1-.6 1.3-.2.1-.3.1-.4.1z"/><path d="m257.2 250.5c-.4 0-.8-.3-.9-.7l-3-8.5c-.2-.5.1-1.1.6-1.3s1.1.1 1.3.6l3 8.5c.2.5-.1 1.1-.6 1.3-.2 0-.3.1-.4.1z"/><path d="m262 250.5c-.4 0-.8-.3-.9-.7l-3-8.5c-.2-.5.1-1.1.6-1.3s1.1.1 1.3.6l3 8.5c.2.5-.1 1.1-.6 1.3-.2 0-.3.1-.4.1z"/></g><path clip-rule="evenodd" d="m217.6 308.9s9.8-8.4 25.5-3l-4.7 7.8h-18.8z" fill="#fbe9c8" fill-rule="evenodd"/><path clip-rule="evenodd" d="m193.7 264.4s5.9 2.5 8.7-.8c4.6-5.5 7.9-12.6 15.1-9.9 7.2 2.6 6.5 19.2 5 22.1-1.7 3.5-7.8 6.9-14.1 5.2-6.5-1.8-20.6-3.9-20.6-3.9z" fill="#fcecc4" fill-rule="evenodd"/><path d="m215.4 261.8c-.4 0-.8-.2-.9-.6-.2-.5.1-1.1.6-1.3l6.4-2.4c.5-.2 1.1.1 1.3.6s-.1 1.1-.6 1.3l-6.4 2.4c-.2 0-.3 0-.4 0z" fill="#f7c852"/><path d="m216.5 266.4c-.4 0-.8-.2-.9-.6-.2-.5.1-1.1.6-1.3l6.6-2.5c.5-.2 1.1.1 1.3.6s-.1 1.1-.6 1.3l-6.6 2.5c-.2-.1-.3 0-.4 0z" fill="#f7c852"/><path d="m217.9 271.7c-.4 0-.8-.2-.9-.6-.2-.5.1-1.1.6-1.3l5.3-2c.5-.2 1.1.1 1.3.6s-.1 1.1-.6 1.3l-5.3 2c-.2 0-.3 0-.4 0z" fill="#f7c852"/><path d="m244.4 213.4c-.1 0-.2 0-.3 0-.5-.2-.8-.7-.7-1.2l2.7-9c.2-.5.7-.8 1.2-.7.5.2.8.7.7 1.2l-2.7 9c-.1.4-.5.7-.9.7z" fill="#f04646"/><path clip-rule="evenodd" d="m134 202.3-10 37.7c-2.3 8.6-1 14.9 9.9 21.4 13 7.7 52 21.4 52 21.4l8.8-19.1-44.9-19.5 10.6-37.4" fill="#ff7979" fill-rule="evenodd"/></svg>